<svg xmlns="http://www.w3.org/2000/svg" viewBox="0 0 24 24" width="100" height="100">
  <path fill="currentColor" d="M12 2c-.3 0-.6.1-.8.4l-5.6 7.9-4.3-2.9c-.3-.2-.7-.2-1 0-.2.2-.4.6-.4 1s.1.8.4 1l4.3 2.9-4.5 6.4c-.2.3-.4.7-.4 1 0 1.1.9 2 2 2 .3 0 .6-.1 .8-.4l5.6-7.9 4.3 2.9c.3.2.7.2 1 0 .3-.2.4-.6.4-1s-.1-.8-.4-1l-4.3-2.9 4.5-6.4c.2-.3.4-.7.4-1 0-1.1-.9-2-2-2zm0 14c-.6 0-1.1-.4-1.5-.9l-2.9-2.9-2.9 2.9c-.4.4-.9.9-1.5.9-1.1 0-2-.9-2-2s.9-2 2-2c.6 0 1.1.4 1.5.9l2.9 2.9 2.9-2.9c.4-.4.9-.9 1.5-.9 1.1 0 2 .9 2 2s-.9 2-2 2z"/>
</svg>
